<svg width="40" height="40" viewBox="0 0 40 40" fill="none" xmlns="http://www.w3.org/2000/svg">
<path d="M18.7884 6.14497C18.638 5.98585 18.5205 5.79867 18.4425 5.59413C18.3644 5.38958 18.3275 5.17166 18.3337 4.95283C18.3399 4.73399 18.3891 4.51852 18.4786 4.31871C18.568 4.1189 18.696 3.93866 18.8551 3.7883C19.0142 3.63794 19.2014 3.52039 19.4059 3.44236C19.6105 3.36434 19.8284 3.32736 20.0472 3.33355C20.2661 3.33974 20.4815 3.38898 20.6813 3.47844C20.8812 3.56791 21.0614 3.69585 21.2117 3.85497L35.3784 18.855C35.671 19.1644 35.834 19.5741 35.834 20C35.834 20.4258 35.671 20.8355 35.3784 21.145L21.2117 36.1466C21.0624 36.3092 20.8822 36.4405 20.6816 36.5329C20.4811 36.6253 20.2642 36.6769 20.0435 36.6847C19.8229 36.6926 19.6029 36.6565 19.3963 36.5786C19.1897 36.5007 19.0006 36.3825 18.8401 36.2309C18.6796 36.0793 18.5507 35.8973 18.4611 35.6955C18.3715 35.4937 18.3229 35.2762 18.3181 35.0554C18.3133 34.8347 18.3524 34.6152 18.4331 34.4097C18.5139 34.2042 18.6346 34.0167 18.7884 33.8583L31.8751 20L18.7884 6.14497Z" fill="#3A3A3A"/>
</svg>
