<svg width="40" height="40" viewBox="0 0 40 40" fill="none" xmlns="http://www.w3.org/2000/svg">
<path d="M21.2116 6.14497C21.362 5.98585 21.4795 5.79867 21.5575 5.59413C21.6356 5.38958 21.6725 5.17166 21.6663 4.95283C21.6601 4.73399 21.6109 4.51852 21.5214 4.31871C21.432 4.1189 21.304 3.93866 21.1449 3.7883C20.9858 3.63794 20.7986 3.52039 20.5941 3.44236C20.3895 3.36434 20.1716 3.32736 19.9528 3.33355C19.7339 3.33974 19.5185 3.38898 19.3187 3.47844C19.1188 3.56791 18.9386 3.69585 18.7883 3.85497L4.62159 18.855C4.32903 19.1644 4.16602 19.5741 4.16602 20C4.16602 20.4258 4.32903 20.8355 4.62159 21.145L18.7883 36.1466C18.9376 36.3092 19.1178 36.4405 19.3184 36.5329C19.5189 36.6253 19.7358 36.6769 19.9565 36.6847C20.1771 36.6926 20.3971 36.6565 20.6037 36.5786C20.8103 36.5007 20.9994 36.3825 21.1599 36.2309C21.3204 36.0793 21.4493 35.8973 21.5389 35.6955C21.6285 35.4937 21.6771 35.2762 21.6819 35.0554C21.6867 34.8347 21.6476 34.6152 21.5669 34.4097C21.4861 34.2042 21.3654 34.0167 21.2116 33.8583L8.12492 20L21.2116 6.14497Z" fill="#3A3A3A"/>
</svg>
