<svg width="16" height="28" viewBox="0 0 16 28" fill="none" xmlns="http://www.w3.org/2000/svg">
<path fill-rule="evenodd" clip-rule="evenodd" d="M15.3676 15.3673C15.7581 14.9766 15.9775 14.4468 15.9775 13.8944C15.9775 13.3419 15.7581 12.8121 15.3676 12.4214L3.58215 0.636018C3.38997 0.437038 3.16009 0.278325 2.90591 0.169139C2.65174 0.0599539 2.37836 0.00248244 2.10174 7.86591e-05C1.82511 -0.00232513 1.55078 0.0503873 1.29475 0.155139C1.03871 0.259891 0.806105 0.414585 0.610495 0.610195C0.414885 0.805805 0.260191 1.03841 0.155439 1.29445C0.0506868 1.55048 -0.00202465 1.82481 0.000379562 2.10144C0.00278378 2.37806 0.0602551 2.65143 0.16944 2.90561C0.278625 3.15978 0.437338 3.38967 0.636317 3.58185L10.9488 13.8944L0.636317 24.2069C0.256822 24.5998 0.046833 25.126 0.0515795 25.6723C0.0563269 26.2185 0.275428 26.741 0.661695 27.1273C1.04796 27.5136 1.57049 27.7327 2.11673 27.7374C2.66298 27.7422 3.18923 27.5322 3.58215 27.1527L15.3676 15.3673Z" fill="#4C469C"/>
</svg>
