<svg width="50" height="50" viewBox="0 0 50 50" fill="none" xmlns="http://www.w3.org/2000/svg">
<path d="M25 31.25C28.4518 31.25 31.25 28.4518 31.25 25C31.25 21.5482 28.4518 18.75 25 18.75C21.5482 18.75 18.75 21.5482 18.75 25C18.75 28.4518 21.5482 31.25 25 31.25Z" fill="white"/>
<path d="M48.3436 24.4688C46.5058 19.7151 43.3154 15.6041 39.1667 12.6439C35.018 9.68368 30.0928 8.00402 24.9998 7.8125C19.9069 8.00402 14.9817 9.68368 10.833 12.6439C6.68422 15.6041 3.49382 19.7151 1.65607 24.4688C1.53196 24.812 1.53196 25.188 1.65607 25.5312C3.49382 30.2849 6.68422 34.3959 10.833 37.3561C14.9817 40.3163 19.9069 41.996 24.9998 42.1875C30.0928 41.996 35.018 40.3163 39.1667 37.3561C43.3154 34.3959 46.5058 30.2849 48.3436 25.5312C48.4677 25.188 48.4677 24.812 48.3436 24.4688ZM24.9998 35.1562C22.9911 35.1562 21.0275 34.5606 19.3573 33.4446C17.6871 32.3286 16.3854 30.7424 15.6167 28.8866C14.848 27.0308 14.6468 24.9887 15.0387 23.0186C15.4306 21.0485 16.3979 19.2388 17.8183 17.8184C19.2386 16.3981 21.0483 15.4308 23.0184 15.0389C24.9886 14.647 27.0306 14.8481 28.8865 15.6168C30.7423 16.3856 32.3285 17.6873 33.4444 19.3575C34.5604 21.0277 35.1561 22.9913 35.1561 25C35.1519 27.6923 34.0806 30.2732 32.1768 32.177C30.273 34.0808 27.6922 35.1521 24.9998 35.1562Z" fill="white"/>
</svg>
